<svg width="53" height="101" viewBox="0 0 53 101" fill="none" xmlns="http://www.w3.org/2000/svg">
<path d="M43.5298 50.005L1.09004 6.39079C0.740622 6.03931 0.464384 5.62203 0.277302 5.16309C0.0902201 4.70415 -0.00398778 4.21267 0.000129346 3.71708C0.00424647 3.22149 0.106604 2.73163 0.301285 2.27587C0.495966 1.8201 0.779104 1.40746 1.13431 1.06184C1.48951 0.716217 1.90973 0.444469 2.37065 0.262322C2.83158 0.0801749 3.32405 -0.00875488 3.81956 0.000679183C4.31508 0.0101132 4.8038 0.117724 5.25746 0.317283C5.71111 0.516843 6.12068 0.804389 6.46247 1.16328L51.441 47.3913C52.1218 48.091 52.5027 49.0287 52.5027 50.005C52.5027 50.9813 52.1218 51.919 51.441 52.6188L6.46247 98.8467C6.12068 99.2056 5.71111 99.4932 5.25746 99.6927C4.8038 99.8923 4.31508 99.9999 3.81956 100.009C3.32405 100.019 2.83158 99.9298 2.37065 99.7477C1.90973 99.5655 1.48951 99.2938 1.13431 98.9482C0.779104 98.6026 0.495966 98.1899 0.301285 97.7341C0.106604 97.2784 0.00424647 96.7885 0.000129346 96.2929C-0.00398778 95.7973 0.0902201 95.3059 0.277302 94.8469C0.464384 94.388 0.740622 93.9707 1.09004 93.6192L43.5298 50.005Z" fill="white"/>
</svg>
