<svg width="53" height="101" viewBox="0 0 53 101" fill="none" xmlns="http://www.w3.org/2000/svg">
<path d="M8.97293 50.005L51.4127 6.39079C51.7621 6.03931 52.0384 5.62203 52.2254 5.16309C52.4125 4.70415 52.5067 4.21267 52.5026 3.71708C52.4985 3.22149 52.3961 2.73163 52.2015 2.27587C52.0068 1.8201 51.7236 1.40746 51.3684 1.06184C51.0132 0.716217 50.593 0.444469 50.1321 0.262322C49.6712 0.0801749 49.1787 -0.00875488 48.6832 0.000679183C48.1877 0.0101132 47.6989 0.117724 47.2453 0.317283C46.7916 0.516843 46.3821 0.804389 46.0403 1.16328L1.0617 47.3913C0.380917 48.091 1.52588e-05 49.0287 1.52588e-05 50.005C1.52588e-05 50.9813 0.380917 51.919 1.0617 52.6188L46.0403 98.8467C46.3821 99.2056 46.7916 99.4932 47.2453 99.6927C47.6989 99.8923 48.1877 99.9999 48.6832 100.009C49.1787 100.019 49.6712 99.9298 50.1321 99.7477C50.593 99.5655 51.0132 99.2938 51.3684 98.9482C51.7236 98.6026 52.0068 98.1899 52.2015 97.7341C52.3961 97.2784 52.4985 96.7885 52.5026 96.2929C52.5067 95.7973 52.4125 95.3059 52.2254 94.8469C52.0384 94.388 51.7621 93.9707 51.4127 93.6192L8.97293 50.005Z" fill="white"/>
</svg>
